<?xml version="1.0" encoding="UTF-8" standalone="no"?>
<!-- Created with Inkscape (http://www.inkscape.org/) -->

<svg
   width="240mm"
   height="240mm"
   viewBox="0 0 240 240"
   version="1.1"
   id="svg1"
   inkscape:version="1.4 (1:1.4+202410161351+e7c3feb100)"
   sodipodi:docname="XAS.svg"
   xmlns:inkscape="http://www.inkscape.org/namespaces/inkscape"
   xmlns:sodipodi="http://sodipodi.sourceforge.net/DTD/sodipodi-0.dtd"
   xmlns="http://www.w3.org/2000/svg"
   xmlns:svg="http://www.w3.org/2000/svg"
   xmlns:ns0="http://www.iki.fi/pav/software/textext/">
  <sodipodi:namedview
     id="namedview1"
     pagecolor="#ffffff"
     bordercolor="#999999"
     borderopacity="1"
     inkscape:showpageshadow="0"
     inkscape:pageopacity="0"
     inkscape:pagecheckerboard="0"
     inkscape:deskcolor="#d1d1d1"
     inkscape:document-units="mm"
     inkscape:zoom="0.84115451"
     inkscape:cx="453.54331"
     inkscape:cy="452.94889"
     inkscape:window-width="1920"
     inkscape:window-height="999"
     inkscape:window-x="0"
     inkscape:window-y="0"
     inkscape:window-maximized="1"
     inkscape:current-layer="layer1"
     showgrid="true">
    <inkscape:grid
       id="grid1"
       units="mm"
       originx="0"
       originy="0"
       spacingx="20"
       spacingy="20"
       empcolor="#0099e5"
       empopacity="0.30196078"
       color="#0099e5"
       opacity="0.14901961"
       empspacing="4"
       enabled="true"
       visible="true" />
  </sodipodi:namedview>
  <defs
     id="defs1">
    <g
       id="g5472">
      <symbol
         overflow="visible"
         id="symbol1251">
        <path
           style="stroke:none"
           d=""
           id="path6780" />
      </symbol>
      <symbol
         overflow="visible"
         id="symbol4723">
        <path
           style="stroke:none"
           d="m 4.4375,-5.75 c 0.671875,0 2.359375,-0.046875 3.546875,-0.5 1.875,-0.71875 2.046875,-2.15625 2.046875,-2.59375 0,-1.09375 -0.9375,-2.078125 -2.578125,-2.078125 -2.59375,0 -6.34375,2.34375 -6.34375,6.765625 0,2.59375 1.5,4.40625 3.75,4.40625 3.375,0 5.5,-2.625 5.5,-2.953125 0,-0.140625 -0.15625,-0.265625 -0.25,-0.265625 -0.07813,0 -0.09375,0.015625 -0.328125,0.25 C 8.203125,-0.625 5.84375,-0.25 4.90625,-0.25 3.5,-0.25 2.75,-1.359375 2.75,-3.203125 2.75,-3.546875 2.75,-4.15625 3.125,-5.75 Z M 3.25,-6.25 c 1.0625,-3.8125 3.421875,-4.1875 4.203125,-4.1875 1.09375,0 1.84375,0.65625 1.84375,1.59375 0,2.59375 -3.96875,2.59375 -5.015625,2.59375 z m 0,0"
           id="path8570" />
      </symbol>
      <symbol
         overflow="visible"
         id="symbol6845">
        <path
           style="stroke:none"
           d=""
           id="path114" />
      </symbol>
      <symbol
         overflow="visible"
         id="symbol4506">
        <path
           style="stroke:none"
           d="m 10.328125,-3.84375 h -0.4375 C 9.640625,-2.078125 9.4375,-1.78125 9.34375,-1.640625 9.21875,-1.4375 7.4375,-1.4375 7.09375,-1.4375 H 2.328125 c 0.890625,-0.96875 2.625,-2.71875 4.734375,-4.75 1.515625,-1.4375 3.265625,-3.125 3.265625,-5.578125 C 10.328125,-14.6875 8,-16.375 5.40625,-16.375 c -2.734375,0 -4.390625,2.390625 -4.390625,4.625 0,0.96875 0.71875,1.09375 1.015625,1.09375 0.25,0 0.984375,-0.140625 0.984375,-1.015625 0,-0.765625 -0.640625,-0.984375 -0.984375,-0.984375 -0.140625,0 -0.296875,0.01563 -0.390625,0.0625 0.46875,-2.09375 1.90625,-3.140625 3.421875,-3.140625 2.15625,0 3.5625,1.703125 3.5625,3.96875 0,2.15625 -1.265625,4.015625 -2.671875,5.625 L 1.015625,-0.5625 V 0 h 8.71875 z m 0,0"
           id="path9103" />
      </symbol>
      <symbol
         overflow="visible"
         id="symbol1055">
        <path
           style="stroke:none"
           d="m 2.75,-4.453125 c 0.46875,0.359375 1.296875,0.78125 2.28125,0.78125 1.953125,0 3.640625,-1.53125 3.640625,-3.59375 0,-0.640625 -0.203125,-1.625 -0.9375,-2.40625 0.6875,-0.734375 1.703125,-0.984375 2.28125,-0.984375 0.09375,0 0.25,0 0.375,0.07813 -0.109375,0.01563 -0.328125,0.125 -0.328125,0.515625 0,0.328125 0.21875,0.546875 0.546875,0.546875 0.375,0 0.5625,-0.25 0.5625,-0.578125 0,-0.46875 -0.375,-0.953125 -1.15625,-0.953125 -1,0 -1.859375,0.46875 -2.5625,1.109375 -0.734375,-0.671875 -1.625,-0.921875 -2.421875,-0.921875 -1.953125,0 -3.640625,1.546875 -3.640625,3.59375 0,1.421875 0.8125,2.3125 1.0625,2.5625 -0.75,0.859375 -0.75,1.875 -0.75,2 0,0.640625 0.25,1.59375 1.09375,2.109375 C 1.515625,-0.265625 0.5,0.71875 0.5,1.953125 0.5,3.734375 2.84375,5.0625 5.671875,5.0625 c 2.734375,0 5.1875,-1.265625 5.1875,-3.125 0,-3.375 -3.671875,-3.375 -5.578125,-3.375 -0.578125,0 -1.59375,0 -1.71875,-0.03125 -0.765625,-0.125 -1.28125,-0.8125 -1.28125,-1.671875 0,-0.234375 0,-0.78125 0.46875,-1.3125 z m 2.28125,0.359375 c -2.1875,0 -2.1875,-2.671875 -2.1875,-3.171875 0,-0.484375 0,-3.171875 2.1875,-3.171875 2.1875,0 2.1875,2.6875 2.1875,3.171875 0,0.5 0,3.171875 -2.1875,3.171875 z m 0.640625,8.734375 c -2.46875,0 -4.1875,-1.3125 -4.1875,-2.6875 0,-0.765625 0.421875,-1.484375 0.96875,-1.875 0.625,-0.421875 0.875,-0.421875 2.546875,-0.421875 2.03125,0 4.859375,0 4.859375,2.296875 0,1.375 -1.703125,2.6875 -4.1875,2.6875 z m 0,0"
           id="path4517" />
      </symbol>
    </g>
    <g
       id="g5755">
      <symbol
         overflow="visible"
         id="symbol2350">
        <path
           style="stroke:none"
           d=""
           id="path1291" />
      </symbol>
      <symbol
         overflow="visible"
         id="symbol496">
        <path
           style="stroke:none"
           d="m 4.4375,-5.75 c 0.671875,0 2.359375,-0.046875 3.546875,-0.5 1.875,-0.71875 2.046875,-2.15625 2.046875,-2.59375 0,-1.09375 -0.9375,-2.078125 -2.578125,-2.078125 -2.59375,0 -6.34375,2.34375 -6.34375,6.765625 0,2.59375 1.5,4.40625 3.75,4.40625 3.375,0 5.5,-2.625 5.5,-2.953125 0,-0.140625 -0.15625,-0.265625 -0.25,-0.265625 -0.07813,0 -0.09375,0.015625 -0.328125,0.25 C 8.203125,-0.625 5.84375,-0.25 4.90625,-0.25 3.5,-0.25 2.75,-1.359375 2.75,-3.203125 2.75,-3.546875 2.75,-4.15625 3.125,-5.75 Z M 3.25,-6.25 c 1.0625,-3.8125 3.421875,-4.1875 4.203125,-4.1875 1.09375,0 1.84375,0.65625 1.84375,1.59375 0,2.59375 -3.96875,2.59375 -5.015625,2.59375 z m 0,0"
           id="path111" />
      </symbol>
      <symbol
         overflow="visible"
         id="symbol8090">
        <path
           style="stroke:none"
           d="M 8.375,-3.140625 C 8.28125,-2.75 8.234375,-2.65625 7.90625,-2.28125 6.890625,-0.96875 5.84375,-0.5 5.078125,-0.5 4.265625,-0.5 3.5,-1.140625 3.5,-2.84375 3.5,-4.15625 4.234375,-6.9375 4.78125,-8.046875 5.5,-9.4375 6.609375,-10.4375 7.65625,-10.4375 c 1.640625,0 1.953125,2.03125 1.953125,2.1875 l -0.0625,0.34375 z m 1.53125,-6.15625 c -0.3125,-0.71875 -1.015625,-1.625 -2.25,-1.625 -2.703125,0 -5.765625,3.390625 -5.765625,7.078125 C 1.890625,-1.265625 3.4375,0 5.03125,0 6.34375,0 7.515625,-1.046875 7.953125,-1.53125 L 7.40625,0.6875 C 7.0625,2.0625 6.90625,2.671875 6.015625,3.546875 5,4.5625 4.0625,4.5625 3.515625,4.5625 2.78125,4.5625 2.15625,4.515625 1.53125,4.3125 c 0.796875,-0.21875 1,-0.921875 1,-1.1875 0,-0.40625 -0.296875,-0.796875 -0.84375,-0.796875 -0.59375,0 -1.234375,0.5 -1.234375,1.3125 C 0.453125,4.65625 1.46875,5.0625 3.5625,5.0625 6.765625,5.0625 8.421875,3 8.75,1.65625 L 11.5,-9.4375 c 0.07813,-0.296875 0.07813,-0.34375 0.07813,-0.40625 0,-0.34375 -0.28125,-0.609375 -0.65625,-0.609375 -0.59375,0 -0.9375,0.484375 -1.015625,1.15625 z m 0,0"
           id="path375" />
      </symbol>
      <symbol
         overflow="visible"
         id="symbol3961">
        <path
           style="stroke:none"
           d=""
           id="path1600" />
      </symbol>
      <symbol
         overflow="visible"
         id="symbol8890">
        <path
           style="stroke:none"
           d="m 10.328125,-3.84375 h -0.4375 C 9.640625,-2.078125 9.4375,-1.78125 9.34375,-1.640625 9.21875,-1.4375 7.4375,-1.4375 7.09375,-1.4375 H 2.328125 c 0.890625,-0.96875 2.625,-2.71875 4.734375,-4.75 1.515625,-1.4375 3.265625,-3.125 3.265625,-5.578125 C 10.328125,-14.6875 8,-16.375 5.40625,-16.375 c -2.734375,0 -4.390625,2.390625 -4.390625,4.625 0,0.96875 0.71875,1.09375 1.015625,1.09375 0.25,0 0.984375,-0.140625 0.984375,-1.015625 0,-0.765625 -0.640625,-0.984375 -0.984375,-0.984375 -0.140625,0 -0.296875,0.01563 -0.390625,0.0625 0.46875,-2.09375 1.90625,-3.140625 3.421875,-3.140625 2.15625,0 3.5625,1.703125 3.5625,3.96875 0,2.15625 -1.265625,4.015625 -2.671875,5.625 L 1.015625,-0.5625 V 0 h 8.71875 z m 0,0"
           id="path1314" />
      </symbol>
    </g>
    <g
       id="g38">
      <symbol
         overflow="visible"
         id="symbol7843">
        <path
           style="stroke:none"
           d=""
           id="path5859" />
      </symbol>
      <symbol
         overflow="visible"
         id="symbol9569">
        <path
           style="stroke:none"
           d="m 4.4375,-5.75 c 0.671875,0 2.359375,-0.046875 3.546875,-0.5 1.875,-0.71875 2.046875,-2.15625 2.046875,-2.59375 0,-1.09375 -0.9375,-2.078125 -2.578125,-2.078125 -2.59375,0 -6.34375,2.34375 -6.34375,6.765625 0,2.59375 1.5,4.40625 3.75,4.40625 3.375,0 5.5,-2.625 5.5,-2.953125 0,-0.140625 -0.15625,-0.265625 -0.25,-0.265625 -0.07813,0 -0.09375,0.015625 -0.328125,0.25 C 8.203125,-0.625 5.84375,-0.25 4.90625,-0.25 3.5,-0.25 2.75,-1.359375 2.75,-3.203125 2.75,-3.546875 2.75,-4.15625 3.125,-5.75 Z M 3.25,-6.25 c 1.0625,-3.8125 3.421875,-4.1875 4.203125,-4.1875 1.09375,0 1.84375,0.65625 1.84375,1.59375 0,2.59375 -3.96875,2.59375 -5.015625,2.59375 z m 0,0"
           id="path6058" />
      </symbol>
      <symbol
         overflow="visible"
         id="symbol168">
        <path
           style="stroke:none"
           d="M 8.375,-3.140625 C 8.28125,-2.75 8.234375,-2.65625 7.90625,-2.28125 6.890625,-0.96875 5.84375,-0.5 5.078125,-0.5 4.265625,-0.5 3.5,-1.140625 3.5,-2.84375 3.5,-4.15625 4.234375,-6.9375 4.78125,-8.046875 5.5,-9.4375 6.609375,-10.4375 7.65625,-10.4375 c 1.640625,0 1.953125,2.03125 1.953125,2.1875 l -0.0625,0.34375 z m 1.53125,-6.15625 c -0.3125,-0.71875 -1.015625,-1.625 -2.25,-1.625 -2.703125,0 -5.765625,3.390625 -5.765625,7.078125 C 1.890625,-1.265625 3.4375,0 5.03125,0 6.34375,0 7.515625,-1.046875 7.953125,-1.53125 L 7.40625,0.6875 C 7.0625,2.0625 6.90625,2.671875 6.015625,3.546875 5,4.5625 4.0625,4.5625 3.515625,4.5625 2.78125,4.5625 2.15625,4.515625 1.53125,4.3125 c 0.796875,-0.21875 1,-0.921875 1,-1.1875 0,-0.40625 -0.296875,-0.796875 -0.84375,-0.796875 -0.59375,0 -1.234375,0.5 -1.234375,1.3125 C 0.453125,4.65625 1.46875,5.0625 3.5625,5.0625 6.765625,5.0625 8.421875,3 8.75,1.65625 L 11.5,-9.4375 c 0.07813,-0.296875 0.07813,-0.34375 0.07813,-0.40625 0,-0.34375 -0.28125,-0.609375 -0.65625,-0.609375 -0.59375,0 -0.9375,0.484375 -1.015625,1.15625 z m 0,0"
           id="path1512" />
      </symbol>
      <symbol
         overflow="visible"
         id="symbol7636">
        <path
           style="stroke:none"
           d=""
           id="path8282" />
      </symbol>
      <symbol
         overflow="visible"
         id="symbol5919">
        <path
           style="stroke:none"
           d="m 10.328125,-3.84375 h -0.4375 C 9.640625,-2.078125 9.4375,-1.78125 9.34375,-1.640625 9.21875,-1.4375 7.4375,-1.4375 7.09375,-1.4375 H 2.328125 c 0.890625,-0.96875 2.625,-2.71875 4.734375,-4.75 1.515625,-1.4375 3.265625,-3.125 3.265625,-5.578125 C 10.328125,-14.6875 8,-16.375 5.40625,-16.375 c -2.734375,0 -4.390625,2.390625 -4.390625,4.625 0,0.96875 0.71875,1.09375 1.015625,1.09375 0.25,0 0.984375,-0.140625 0.984375,-1.015625 0,-0.765625 -0.640625,-0.984375 -0.984375,-0.984375 -0.140625,0 -0.296875,0.01563 -0.390625,0.0625 0.46875,-2.09375 1.90625,-3.140625 3.421875,-3.140625 2.15625,0 3.5625,1.703125 3.5625,3.96875 0,2.15625 -1.265625,4.015625 -2.671875,5.625 L 1.015625,-0.5625 V 0 h 8.71875 z m 0,0"
           id="path865" />
      </symbol>
    </g>
    <g
       id="g8075">
      <symbol
         overflow="visible"
         id="symbol236">
        <path
           style="stroke:none"
           d=""
           id="path4825" />
      </symbol>
      <symbol
         overflow="visible"
         id="symbol6102">
        <path
           style="stroke:none"
           d="m 4.4375,-5.75 c 0.671875,0 2.359375,-0.046875 3.546875,-0.5 1.875,-0.71875 2.046875,-2.15625 2.046875,-2.59375 0,-1.09375 -0.9375,-2.078125 -2.578125,-2.078125 -2.59375,0 -6.34375,2.34375 -6.34375,6.765625 0,2.59375 1.5,4.40625 3.75,4.40625 3.375,0 5.5,-2.625 5.5,-2.953125 0,-0.140625 -0.15625,-0.265625 -0.25,-0.265625 -0.07813,0 -0.09375,0.015625 -0.328125,0.25 C 8.203125,-0.625 5.84375,-0.25 4.90625,-0.25 3.5,-0.25 2.75,-1.359375 2.75,-3.203125 2.75,-3.546875 2.75,-4.15625 3.125,-5.75 Z M 3.25,-6.25 c 1.0625,-3.8125 3.421875,-4.1875 4.203125,-4.1875 1.09375,0 1.84375,0.65625 1.84375,1.59375 0,2.59375 -3.96875,2.59375 -5.015625,2.59375 z m 0,0"
           id="path5338" />
      </symbol>
      <symbol
         overflow="visible"
         id="symbol6547">
        <path
           style="stroke:none"
           d=""
           id="path7369" />
      </symbol>
      <symbol
         overflow="visible"
         id="symbol3777">
        <path
           style="stroke:none"
           d="m 10.328125,-3.84375 h -0.4375 C 9.640625,-2.078125 9.4375,-1.78125 9.34375,-1.640625 9.21875,-1.4375 7.4375,-1.4375 7.09375,-1.4375 H 2.328125 c 0.890625,-0.96875 2.625,-2.71875 4.734375,-4.75 1.515625,-1.4375 3.265625,-3.125 3.265625,-5.578125 C 10.328125,-14.6875 8,-16.375 5.40625,-16.375 c -2.734375,0 -4.390625,2.390625 -4.390625,4.625 0,0.96875 0.71875,1.09375 1.015625,1.09375 0.25,0 0.984375,-0.140625 0.984375,-1.015625 0,-0.765625 -0.640625,-0.984375 -0.984375,-0.984375 -0.140625,0 -0.296875,0.01563 -0.390625,0.0625 0.46875,-2.09375 1.90625,-3.140625 3.421875,-3.140625 2.15625,0 3.5625,1.703125 3.5625,3.96875 0,2.15625 -1.265625,4.015625 -2.671875,5.625 L 1.015625,-0.5625 V 0 h 8.71875 z m 0,0"
           id="path736" />
      </symbol>
      <symbol
         overflow="visible"
         id="symbol2166">
        <path
           style="stroke:none"
           d="m 2.75,-4.453125 c 0.46875,0.359375 1.296875,0.78125 2.28125,0.78125 1.953125,0 3.640625,-1.53125 3.640625,-3.59375 0,-0.640625 -0.203125,-1.625 -0.9375,-2.40625 0.6875,-0.734375 1.703125,-0.984375 2.28125,-0.984375 0.09375,0 0.25,0 0.375,0.07813 -0.109375,0.01563 -0.328125,0.125 -0.328125,0.515625 0,0.328125 0.21875,0.546875 0.546875,0.546875 0.375,0 0.5625,-0.25 0.5625,-0.578125 0,-0.46875 -0.375,-0.953125 -1.15625,-0.953125 -1,0 -1.859375,0.46875 -2.5625,1.109375 -0.734375,-0.671875 -1.625,-0.921875 -2.421875,-0.921875 -1.953125,0 -3.640625,1.546875 -3.640625,3.59375 0,1.421875 0.8125,2.3125 1.0625,2.5625 -0.75,0.859375 -0.75,1.875 -0.75,2 0,0.640625 0.25,1.59375 1.09375,2.109375 C 1.515625,-0.265625 0.5,0.71875 0.5,1.953125 0.5,3.734375 2.84375,5.0625 5.671875,5.0625 c 2.734375,0 5.1875,-1.265625 5.1875,-3.125 0,-3.375 -3.671875,-3.375 -5.578125,-3.375 -0.578125,0 -1.59375,0 -1.71875,-0.03125 -0.765625,-0.125 -1.28125,-0.8125 -1.28125,-1.671875 0,-0.234375 0,-0.78125 0.46875,-1.3125 z m 2.28125,0.359375 c -2.1875,0 -2.1875,-2.671875 -2.1875,-3.171875 0,-0.484375 0,-3.171875 2.1875,-3.171875 2.1875,0 2.1875,2.6875 2.1875,3.171875 0,0.5 0,3.171875 -2.1875,3.171875 z m 0.640625,8.734375 c -2.46875,0 -4.1875,-1.3125 -4.1875,-2.6875 0,-0.765625 0.421875,-1.484375 0.96875,-1.875 0.625,-0.421875 0.875,-0.421875 2.546875,-0.421875 2.03125,0 4.859375,0 4.859375,2.296875 0,1.375 -1.703125,2.6875 -4.1875,2.6875 z m 0,0"
           id="path3067" />
      </symbol>
    </g>
    <g
       id="g3678">
      <symbol
         overflow="visible"
         id="symbol4795">
        <path
           style="stroke:none"
           d=""
           id="path351" />
      </symbol>
      <symbol
         overflow="visible"
         id="symbol2756">
        <path
           style="stroke:none"
           d="m 4.984375,-9.96875 h 2.28125 c 0.46875,0 0.71875,0 0.71875,-0.4375 0,-0.28125 -0.15625,-0.28125 -0.65625,-0.28125 H 5.15625 l 0.921875,-3.609375 c 0.09375,-0.34375 0.09375,-0.390625 0.09375,-0.578125 0,-0.390625 -0.328125,-0.609375 -0.640625,-0.609375 -0.203125,0 -0.765625,0.07813 -0.96875,0.859375 l -0.96875,3.9375 H 1.265625 c -0.5,0 -0.71875,0 -0.71875,0.484375 0,0.234375 0.171875,0.234375 0.640625,0.234375 h 2.203125 l -1.625,6.546875 c -0.203125,0.875 -0.28125,1.125 -0.28125,1.4375 0,1.171875 0.8125,2.234375 2.203125,2.234375 2.5,0 3.84375,-3.625 3.84375,-3.796875 0,-0.140625 -0.09375,-0.21875 -0.25,-0.21875 -0.046875,0 -0.140625,0 -0.1875,0.09375 C 7.0625,-3.640625 7.03125,-3.625 6.859375,-3.21875 6.34375,-1.984375 5.203125,-0.25 3.765625,-0.25 c -0.75,0 -0.796875,-0.625 -0.796875,-1.15625 0,-0.03125 0,-0.5 0.078125,-0.796875 z m 0,0"
           id="path8004" />
      </symbol>
      <symbol
         overflow="visible"
         id="symbol3011">
        <path
           style="stroke:none"
           d=""
           id="path8310" />
      </symbol>
      <symbol
         overflow="visible"
         id="symbol9073">
        <path
           style="stroke:none"
           d="m 10.328125,-3.84375 h -0.4375 C 9.640625,-2.078125 9.4375,-1.78125 9.34375,-1.640625 9.21875,-1.4375 7.4375,-1.4375 7.09375,-1.4375 H 2.328125 c 0.890625,-0.96875 2.625,-2.71875 4.734375,-4.75 1.515625,-1.4375 3.265625,-3.125 3.265625,-5.578125 C 10.328125,-14.6875 8,-16.375 5.40625,-16.375 c -2.734375,0 -4.390625,2.390625 -4.390625,4.625 0,0.96875 0.71875,1.09375 1.015625,1.09375 0.25,0 0.984375,-0.140625 0.984375,-1.015625 0,-0.765625 -0.640625,-0.984375 -0.984375,-0.984375 -0.140625,0 -0.296875,0.01563 -0.390625,0.0625 0.46875,-2.09375 1.90625,-3.140625 3.421875,-3.140625 2.15625,0 3.5625,1.703125 3.5625,3.96875 0,2.15625 -1.265625,4.015625 -2.671875,5.625 L 1.015625,-0.5625 V 0 h 8.71875 z m 0,0"
           id="path8881" />
      </symbol>
      <symbol
         overflow="visible"
         id="symbol5216">
        <path
           style="stroke:none"
           d="m 2.75,-4.453125 c 0.46875,0.359375 1.296875,0.78125 2.28125,0.78125 1.953125,0 3.640625,-1.53125 3.640625,-3.59375 0,-0.640625 -0.203125,-1.625 -0.9375,-2.40625 0.6875,-0.734375 1.703125,-0.984375 2.28125,-0.984375 0.09375,0 0.25,0 0.375,0.07813 -0.109375,0.01563 -0.328125,0.125 -0.328125,0.515625 0,0.328125 0.21875,0.546875 0.546875,0.546875 0.375,0 0.5625,-0.25 0.5625,-0.578125 0,-0.46875 -0.375,-0.953125 -1.15625,-0.953125 -1,0 -1.859375,0.46875 -2.5625,1.109375 -0.734375,-0.671875 -1.625,-0.921875 -2.421875,-0.921875 -1.953125,0 -3.640625,1.546875 -3.640625,3.59375 0,1.421875 0.8125,2.3125 1.0625,2.5625 -0.75,0.859375 -0.75,1.875 -0.75,2 0,0.640625 0.25,1.59375 1.09375,2.109375 C 1.515625,-0.265625 0.5,0.71875 0.5,1.953125 0.5,3.734375 2.84375,5.0625 5.671875,5.0625 c 2.734375,0 5.1875,-1.265625 5.1875,-3.125 0,-3.375 -3.671875,-3.375 -5.578125,-3.375 -0.578125,0 -1.59375,0 -1.71875,-0.03125 -0.765625,-0.125 -1.28125,-0.8125 -1.28125,-1.671875 0,-0.234375 0,-0.78125 0.46875,-1.3125 z m 2.28125,0.359375 c -2.1875,0 -2.1875,-2.671875 -2.1875,-3.171875 0,-0.484375 0,-3.171875 2.1875,-3.171875 2.1875,0 2.1875,2.6875 2.1875,3.171875 0,0.5 0,3.171875 -2.1875,3.171875 z m 0.640625,8.734375 c -2.46875,0 -4.1875,-1.3125 -4.1875,-2.6875 0,-0.765625 0.421875,-1.484375 0.96875,-1.875 0.625,-0.421875 0.875,-0.421875 2.546875,-0.421875 2.03125,0 4.859375,0 4.859375,2.296875 0,1.375 -1.703125,2.6875 -4.1875,2.6875 z m 0,0"
           id="path3399" />
      </symbol>
    </g>
    <marker
       style="overflow:visible"
       id="ConcaveTriangle-20"
       refX="0"
       refY="0"
       orient="auto-start-reverse"
       inkscape:stockid="Concave triangle arrow"
       markerWidth="1"
       markerHeight="1"
       viewBox="0 0 1 1"
       inkscape:isstock="true"
       inkscape:collect="always"
       preserveAspectRatio="xMidYMid">
      <path
         transform="scale(0.7)"
         d="M -2,-4 9,0 -2,4 c 2,-2.33 2,-5.66 0,-8 z"
         style="fill:context-stroke;fill-rule:evenodd;stroke:none"
         id="path5-2" />
    </marker>
    <g
       id="g4423">
      <symbol
         overflow="visible"
         id="symbol9968">
        <path
           style="stroke:none"
           d=""
           id="path770" />
      </symbol>
      <symbol
         overflow="visible"
         id="symbol4596">
        <path
           style="stroke:none"
           d="m 7.015625,-3.546875 c 0,-0.125 -0.109375,-0.21875 -0.25,-0.21875 -0.21875,0 -0.25,0.078125 -0.375,0.5 C 5.75,-1.015625 4.734375,-0.25 3.921875,-0.25 c -0.296875,0 -0.65625,-0.078125 -0.65625,-0.8125 0,-0.671875 0.296875,-1.421875 0.578125,-2.15625 l 1.734375,-4.609375 c 0.078125,-0.203125 0.25,-0.640625 0.25,-1.125 0,-1.03125 -0.75,-1.96875 -1.96875,-1.96875 -2.265625,0 -3.1875,3.59375 -3.1875,3.78125 0,0.109375 0.09375,0.234375 0.265625,0.234375 0.234375,0 0.25,-0.109375 0.34375,-0.453125 0.609375,-2.078125 1.546875,-3.078125 2.515625,-3.078125 0.21875,0 0.640625,0.03125 0.640625,0.828125 0,0.640625 -0.328125,1.453125 -0.515625,2 L 2.1875,-3 c -0.15625,0.390625 -0.296875,0.796875 -0.296875,1.234375 0,1.125 0.765625,2.015625 1.953125,2.015625 2.28125,0 3.171875,-3.625 3.171875,-3.796875 z M 6.8125,-15.46875 c 0,-0.359375 -0.296875,-0.8125 -0.84375,-0.8125 -0.5625,0 -1.203125,0.546875 -1.203125,1.1875 0,0.625 0.515625,0.8125 0.8125,0.8125 0.671875,0 1.234375,-0.640625 1.234375,-1.1875 z m 0,0"
           id="path8746" />
      </symbol>
    </g>
    <g
       id="g4349">
      <symbol
         overflow="visible"
         id="symbol6692">
        <path
           style="stroke:none"
           d=""
           id="path2288" />
      </symbol>
      <symbol
         overflow="visible"
         id="symbol6154">
        <path
           style="stroke:none"
           d="m 7.015625,-3.546875 c 0,-0.125 -0.109375,-0.21875 -0.25,-0.21875 -0.21875,0 -0.25,0.078125 -0.375,0.5 C 5.75,-1.015625 4.734375,-0.25 3.921875,-0.25 c -0.296875,0 -0.65625,-0.078125 -0.65625,-0.8125 0,-0.671875 0.296875,-1.421875 0.578125,-2.15625 l 1.734375,-4.609375 c 0.078125,-0.203125 0.25,-0.640625 0.25,-1.125 0,-1.03125 -0.75,-1.96875 -1.96875,-1.96875 -2.265625,0 -3.1875,3.59375 -3.1875,3.78125 0,0.109375 0.09375,0.234375 0.265625,0.234375 0.234375,0 0.25,-0.109375 0.34375,-0.453125 0.609375,-2.078125 1.546875,-3.078125 2.515625,-3.078125 0.21875,0 0.640625,0.03125 0.640625,0.828125 0,0.640625 -0.328125,1.453125 -0.515625,2 L 2.1875,-3 c -0.15625,0.390625 -0.296875,0.796875 -0.296875,1.234375 0,1.125 0.765625,2.015625 1.953125,2.015625 2.28125,0 3.171875,-3.625 3.171875,-3.796875 z M 6.8125,-15.46875 c 0,-0.359375 -0.296875,-0.8125 -0.84375,-0.8125 -0.5625,0 -1.203125,0.546875 -1.203125,1.1875 0,0.625 0.515625,0.8125 0.8125,0.8125 0.671875,0 1.234375,-0.640625 1.234375,-1.1875 z m 0,0"
           id="path8609" />
      </symbol>
    </g>
    <g
       id="g908">
      <symbol
         overflow="visible"
         id="symbol9454">
        <path
           style="stroke:none"
           d=""
           id="path9556" />
      </symbol>
      <symbol
         overflow="visible"
         id="symbol7484">
        <path
           style="stroke:none"
           d="m 7.015625,-3.546875 c 0,-0.125 -0.109375,-0.21875 -0.25,-0.21875 -0.21875,0 -0.25,0.078125 -0.375,0.5 C 5.75,-1.015625 4.734375,-0.25 3.921875,-0.25 c -0.296875,0 -0.65625,-0.078125 -0.65625,-0.8125 0,-0.671875 0.296875,-1.421875 0.578125,-2.15625 l 1.734375,-4.609375 c 0.078125,-0.203125 0.25,-0.640625 0.25,-1.125 0,-1.03125 -0.75,-1.96875 -1.96875,-1.96875 -2.265625,0 -3.1875,3.59375 -3.1875,3.78125 0,0.109375 0.09375,0.234375 0.265625,0.234375 0.234375,0 0.25,-0.109375 0.34375,-0.453125 0.609375,-2.078125 1.546875,-3.078125 2.515625,-3.078125 0.21875,0 0.640625,0.03125 0.640625,0.828125 0,0.640625 -0.328125,1.453125 -0.515625,2 L 2.1875,-3 c -0.15625,0.390625 -0.296875,0.796875 -0.296875,1.234375 0,1.125 0.765625,2.015625 1.953125,2.015625 2.28125,0 3.171875,-3.625 3.171875,-3.796875 z M 6.8125,-15.46875 c 0,-0.359375 -0.296875,-0.8125 -0.84375,-0.8125 -0.5625,0 -1.203125,0.546875 -1.203125,1.1875 0,0.625 0.515625,0.8125 0.8125,0.8125 0.671875,0 1.234375,-0.640625 1.234375,-1.1875 z m 0,0"
           id="path8000" />
      </symbol>
    </g>
    <g
       id="g8569">
      <symbol
         overflow="visible"
         id="symbol6596">
        <path
           style="stroke:none"
           d=""
           id="path2879" />
      </symbol>
      <symbol
         overflow="visible"
         id="symbol8909">
        <path
           style="stroke:none"
           d="m 7.015625,-3.546875 c 0,-0.125 -0.109375,-0.21875 -0.25,-0.21875 -0.21875,0 -0.25,0.078125 -0.375,0.5 C 5.75,-1.015625 4.734375,-0.25 3.921875,-0.25 c -0.296875,0 -0.65625,-0.078125 -0.65625,-0.8125 0,-0.671875 0.296875,-1.421875 0.578125,-2.15625 l 1.734375,-4.609375 c 0.078125,-0.203125 0.25,-0.640625 0.25,-1.125 0,-1.03125 -0.75,-1.96875 -1.96875,-1.96875 -2.265625,0 -3.1875,3.59375 -3.1875,3.78125 0,0.109375 0.09375,0.234375 0.265625,0.234375 0.234375,0 0.25,-0.109375 0.34375,-0.453125 0.609375,-2.078125 1.546875,-3.078125 2.515625,-3.078125 0.21875,0 0.640625,0.03125 0.640625,0.828125 0,0.640625 -0.328125,1.453125 -0.515625,2 L 2.1875,-3 c -0.15625,0.390625 -0.296875,0.796875 -0.296875,1.234375 0,1.125 0.765625,2.015625 1.953125,2.015625 2.28125,0 3.171875,-3.625 3.171875,-3.796875 z M 6.8125,-15.46875 c 0,-0.359375 -0.296875,-0.8125 -0.84375,-0.8125 -0.5625,0 -1.203125,0.546875 -1.203125,1.1875 0,0.625 0.515625,0.8125 0.8125,0.8125 0.671875,0 1.234375,-0.640625 1.234375,-1.1875 z m 0,0"
           id="path9399" />
      </symbol>
    </g>
    <g
       id="g7834">
      <symbol
         overflow="visible"
         id="symbol9070">
        <path
           style="stroke:none"
           d=""
           id="path2205" />
      </symbol>
      <symbol
         overflow="visible"
         id="symbol8028">
        <path
           style="stroke:none"
           d="m 11.046875,-9.96875 c 0.5,0 0.703125,0 0.703125,-0.46875 0,-0.25 -0.203125,-0.25 -0.640625,-0.25 H 9.09375 c 0.46875,-2.546875 0.8125,-4.3125 1.015625,-5.09375 0.15625,-0.59375 0.671875,-1.171875 1.3125,-1.171875 0.515625,0 1.046875,0.21875 1.296875,0.453125 -0.96875,0.09375 -1.265625,0.8125 -1.265625,1.234375 0,0.5 0.375,0.796875 0.84375,0.796875 0.484375,0 1.234375,-0.421875 1.234375,-1.359375 0,-1.046875 -1.046875,-1.625 -2.125,-1.625 -1.078125,0 -2.109375,0.796875 -2.609375,1.765625 -0.453125,0.875 -0.6875,1.765625 -1.265625,5 H 5.875 c -0.46875,0 -0.71875,0 -0.71875,0.453125 0,0.265625 0.140625,0.265625 0.640625,0.265625 h 1.59375 C 6.9375,-7.65625 5.921875,-2.0625 5.359375,0.59375 4.9375,2.75 4.5625,4.5625 3.328125,4.5625 c -0.078125,0 -0.796875,0 -1.25,-0.46875 C 3.34375,3.984375 3.34375,2.90625 3.34375,2.875 3.34375,2.375 2.96875,2.078125 2.5,2.078125 2,2.078125 1.265625,2.5 1.265625,3.4375 c 0,1.078125 1.09375,1.625 2.0625,1.625 2.515625,0 3.5625,-4.546875 3.828125,-5.78125 0.453125,-1.90625 1.671875,-8.5 1.796875,-9.25 z m 0,0"
           id="path6597" />
      </symbol>
    </g>
    <g
       id="g9107">
      <symbol
         overflow="visible"
         id="symbol6">
        <path
           style="stroke:none"
           d=""
           id="path1389" />
      </symbol>
      <symbol
         overflow="visible"
         id="symbol4500">
        <path
           style="stroke:none"
           d="m 11.125,-4.703125 c -0.21875,-1.671875 -1.40625,-6.5 -5.25,-6.5 -3.5,0 -5.578125,3.46875 -5.578125,4.484375 0,0.375 0.34375,0.375 0.578125,0.375 0.265625,0 0.46875,0 0.59375,-0.296875 C 2,-8.234375 4.0625,-8.46875 5.359375,-8.46875 c 1.359375,0 2.984375,0.3125 3.828125,1.5 0.671875,1 0.875,3.03125 0.875,4.046875 0,0.984375 -0.04687,1.15625 -0.21875,1.6875 -0.671875,2 -1.4375,4.671875 -1.4375,5.59375 0,0.203125 0,0.875 0.59375,0.875 0.59375,0 0.90625,-0.921875 1.015625,-1.21875 0.1875,-0.59375 0.84375,-2.828125 1.140625,-5.375 0.01563,-0.296875 0.01563,-0.34375 0.09375,-0.546875 0.671875,-1.859375 1.859375,-4.734375 3.625,-7.90625 0.140625,-0.28125 0.421875,-0.75 0.421875,-0.84375 C 15.296875,-11 14.9375,-11 14.71875,-11 c -0.25,0 -0.34375,0 -0.46875,0.09375 -0.04687,0.04687 -1.359375,2.203125 -3.125,6.203125 z m 0,0"
           id="path2746" />
      </symbol>
    </g>
  </defs>
  <g
     inkscape:label="Layer 1"
     inkscape:groupmode="layer"
     id="layer1">
    <circle
       style="fill:#ffffff;fill-opacity:1;fill-rule:evenodd;stroke:#000000;stroke-width:2;stroke-dasharray:none;stroke-opacity:1"
       id="path1-0"
       cx="120"
       cy="120"
       r="100" />
    <circle
       style="fill:#ff7f0e;fill-opacity:0.5;fill-rule:evenodd;stroke:#000000;stroke-width:3;stroke-dasharray:none;stroke-opacity:1"
       id="path1"
       cx="120"
       cy="120"
       r="100" />
    <g
       inkscape:label=""
       transform="matrix(2.6845337,0,0,2.6845337,130.09421,155.93875)"
       id="g2-2"
       style="stroke-width:0.372504">
      <g
         id="surface1-2"
         transform="matrix(0.352778,0,0,0.352778,-1.13303,-2.24662)"
         style="stroke-width:0.372504">
        <g
           style="fill:#000000;fill-opacity:1;stroke-width:0.372504"
           id="g5">
          <g
             id="use4"
             transform="translate(1.993,22.004)"
             style="stroke-width:0.372504">
            <path
               style="stroke:none;stroke-width:0.372504"
               d="m 5.5,-5.40625 c 1.65625,0 3.265625,-0.140625 4.3125,-0.484375 2.109375,-0.71875 2.453125,-2.140625 2.453125,-2.9375 0,-1.4375 -1.359375,-2.375 -3.390625,-2.375 -4.484375,0 -7.65625,3.09375 -7.65625,6.9375 0,2.859375 1.90625,4.46875 5.171875,4.46875 0.640625,0 2.359375,-0.03125 3.84375,-0.59375 1.4375,-0.578125 2.421875,-1.59375 2.421875,-1.890625 0,-0.203125 -0.390625,-0.640625 -0.609375,-0.640625 -0.15625,0 -0.203125,0.078125 -0.375,0.265625 -1.34375,1.421875 -3.265625,1.96875 -5.203125,1.96875 -1.78125,0 -2.421875,-1 -2.421875,-2.40625 0,-0.46875 0.09375,-1.296875 0.359375,-2.3125 z M 4.640625,-6.296875 c 0.4375,-1.8125 1.03125,-2.46875 1.453125,-2.875 0.875,-0.859375 2.015625,-1.140625 2.78125,-1.140625 0.890625,0 1.90625,0.40625 1.90625,1.515625 0,2.5 -3.75,2.5 -6.140625,2.5 z m 0,0"
               id="path6" />
          </g>
        </g>
        <g
           style="fill:#000000;fill-opacity:1;stroke-width:0.372504"
           id="g6">
          <g
             id="use5"
             transform="translate(15.715,13.009)"
             style="stroke-width:0.372504">
            <path
               style="stroke:none;stroke-width:0.372504"
               d="m 7.734375,-4.359375 v -2.28125 h -7.4375 v 2.28125 z m 0,0"
               id="path7-1" />
          </g>
        </g>
      </g>
    </g>
    <path
       style="fill:none;stroke:#000000;stroke-width:4;stroke-linecap:butt;stroke-linejoin:miter;stroke-dasharray:none;stroke-opacity:1"
       d="m 95,180.64285 h 50"
       id="path2-5" />
    <path
       style="fill:none;stroke:#000000;stroke-width:4;stroke-linecap:butt;stroke-linejoin:miter;stroke-dasharray:none;stroke-opacity:1"
       d="m 95,60.642855 h 50"
       id="path2-7" />
    <path
       style="fill:none;stroke:#000000;stroke-width:2;stroke-linecap:butt;stroke-linejoin:miter;stroke-dasharray:none;stroke-opacity:1;marker-end:url(#ConcaveTriangle-20)"
       d="M 120.00001,175.90245 V 78.801844"
       id="path4-7" />
    <circle
       style="fill:#000000;fill-opacity:1;fill-rule:evenodd;stroke-width:0.264583"
       id="path2"
       cx="120"
       cy="180.64285"
       r="7.5" />
    <circle
       style="fill:#ff7f0e;fill-opacity:1;fill-rule:evenodd;stroke:#000000;stroke-width:2;stroke-dasharray:none;stroke-opacity:1"
       id="path2-4"
       cx="120"
       cy="60"
       r="7" />
    <g
       inkscape:label=""
       transform="matrix(3.2570414,0,0,3.2570414,156.21185,48.456013)"
       id="g2"
       style="stroke-width:0.307027">
      <g
         id="surface1"
         transform="matrix(0.352778,0,0,0.352778,-0.984206,-0.695987)"
         style="stroke-width:0.307027">
        <g
           style="fill:#000000;fill-opacity:1;stroke-width:0.307027"
           id="g3">
          <g
             id="use2"
             transform="translate(1.993,19.176001)"
             style="stroke-width:0.307027">
            <path
               style="stroke:none;stroke-width:0.307027"
               d="m 8.28125,-16.015625 c 0,-0.65625 -0.53125,-1.1875 -1.21875,-1.1875 -0.9375,0 -1.765625,0.875 -1.765625,1.71875 0,0.671875 0.5,1.1875 1.21875,1.1875 0.921875,0 1.765625,-0.875 1.765625,-1.71875 z m 0.609375,12.34375 c 0,-0.34375 -0.359375,-0.34375 -0.59375,-0.34375 -0.296875,0 -0.46875,0 -0.5625,0.328125 -0.765625,2.59375 -2.03125,3 -2.5625,3 -0.234375,0 -0.390625,-0.078125 -0.390625,-0.546875 0,-0.578125 0.21875,-1.125 0.8125,-2.609375 L 7.265625,-8.125 c 0.125,-0.328125 0.1875,-0.625 0.1875,-0.84375 0,-1.3125 -1.28125,-2.234375 -2.8125,-2.234375 -2.578125,0 -3.84375,3.328125 -3.84375,3.875 0,0.34375 0.375,0.34375 0.59375,0.34375 0.296875,0 0.46875,0 0.5625,-0.328125 0.765625,-2.59375 2.03125,-3 2.5625,-3 0.25,0 0.390625,0.07813 0.390625,0.546875 0,0.578125 -0.21875,1.109375 -0.8125,2.609375 L 2.421875,-2.875 c -0.125,0.328125 -0.1875,0.625 -0.1875,0.84375 0,1.3125 1.28125,2.234375 2.828125,2.234375 2.5625,0 3.828125,-3.328125 3.828125,-3.875 z m 0,0"
               id="path3-1-1" />
          </g>
        </g>
      </g>
    </g>
    <g
       inkscape:label=""
       transform="matrix(2.5319917,0,0,2.5319917,153.75437,170)"
       id="g4"
       style="stroke-width:0.394946">
      <g
         id="surface1-1-1"
         transform="matrix(0.352778,0,0,0.352778,-1.24328,-0.640424)"
         style="stroke-width:0.394946">
        <g
           style="fill:#000000;fill-opacity:1;stroke-width:0.394946"
           id="g3-1-1">
          <g
             id="use2-1-1"
             transform="translate(1.993,19.205999)"
             style="stroke-width:0.394946">
            <path
               style="stroke:none;stroke-width:0.394946"
               d="m 10.625,-9.84375 h 2.90625 c 0.46875,0 0.921875,0 0.921875,-0.71875 C 14.453125,-11 14.03125,-11 13.609375,-11 h -2.78125 l 0.8125,-4.484375 c 0.07813,-0.453125 0.07813,-0.5 0.328125,-0.71875 C 12.296875,-16.5 12.5625,-16.5 12.6875,-16.5 c 0.34375,0 0.578125,0.04687 0.875,0.171875 -0.609375,0.296875 -1.046875,0.9375 -1.046875,1.609375 0,0.734375 0.59375,1.140625 1.21875,1.140625 1.015625,0 1.78125,-0.890625 1.78125,-1.828125 0,-1.265625 -1.296875,-1.984375 -2.828125,-1.984375 -1.171875,0 -2.546875,0.46875 -3.421875,1.859375 -0.5625,0.90625 -0.71875,1.875 -1.1875,4.53125 H 5.65625 c -0.484375,0 -0.890625,0 -0.890625,0.71875 0,0.4375 0.40625,0.4375 0.8125,0.4375 h 2.28125 L 5.96875,0.71875 C 5.921875,0.9375 5.65625,2.5 5.53125,2.84375 5.484375,2.96875 5.078125,4.109375 4.28125,4.109375 3.8125,4.109375 3.625,4.046875 3.4375,3.96875 4.0625,3.671875 4.53125,3.015625 4.53125,2.328125 4.53125,1.59375 3.9375,1.1875 3.328125,1.1875 2.296875,1.1875 1.53125,2.078125 1.53125,3.015625 1.53125,4.359375 2.953125,5 4.234375,5 6.09375,5 7.390625,3.171875 7.578125,2.84375 8.65625,1.21875 9.21875,-1.9375 9.296875,-2.359375 Z m 0,0"
               id="path3-1-1-1" />
          </g>
        </g>
      </g>
    </g>
    <g
       inkscape:label=""
       transform="matrix(3.1040967,0,0,3.1040967,68.142584,92.882126)"
       id="g1"
       style="stroke-width:0.322156">
      <g
         id="surface1-1"
         transform="matrix(0.352778,0,0,0.352778,-0.807817,-0.637072)"
         style="stroke-width:0.322156">
        <g
           style="fill:#000000;fill-opacity:1;stroke-width:0.322156"
           id="g3-1">
          <g
             id="use2-1"
             transform="translate(1.993,13.009)"
             style="stroke-width:0.322156">
            <path
               style="stroke:none;stroke-width:0.322156"
               d="m 11.125,-4.703125 c -0.21875,-1.671875 -1.40625,-6.5 -5.25,-6.5 -3.5,0 -5.578125,3.46875 -5.578125,4.484375 0,0.375 0.34375,0.375 0.578125,0.375 0.265625,0 0.46875,0 0.59375,-0.296875 C 2,-8.234375 4.0625,-8.46875 5.359375,-8.46875 c 1.359375,0 2.984375,0.3125 3.828125,1.5 0.671875,1 0.875,3.03125 0.875,4.046875 0,0.984375 -0.04687,1.15625 -0.21875,1.6875 -0.671875,2 -1.4375,4.671875 -1.4375,5.59375 0,0.203125 0,0.875 0.59375,0.875 0.59375,0 0.90625,-0.921875 1.015625,-1.21875 0.1875,-0.59375 0.84375,-2.828125 1.140625,-5.375 0.01563,-0.296875 0.01563,-0.34375 0.09375,-0.546875 0.671875,-1.859375 1.859375,-4.734375 3.625,-7.90625 0.140625,-0.28125 0.421875,-0.75 0.421875,-0.84375 C 15.296875,-11 14.9375,-11 14.71875,-11 c -0.25,0 -0.34375,0 -0.46875,0.09375 -0.04687,0.04687 -1.359375,2.203125 -3.125,6.203125 z m 0,0"
               id="path3" />
          </g>
        </g>
      </g>
    </g>
  </g>
  <g
     transform="matrix(0.74835232,0.74835232,-0.74835232,0.74835232,52.647149,105.30127)"
     ns0:version="1.10.2"
     ns0:texconverter="pdflatex"
     ns0:pdfconverter="inkscape"
     ns0:text="\\begin{tikzpicture}\r\n\\draw[rotate=0, line width=2, decorate, decoration={snake,amplitude=1.0mm,segment length=3.0mm,post length=1.5mm, pre length=0.5mm},postaction={decoration={markings, mark=at position 1.0 with {\\arrow[scale=1.5,&gt;=stealth,xshift=5]{&gt;}}},decorate}] (0,0) -- (3.,0););\r\n\\end{tikzpicture}"
     ns0:preamble="/home/smanti/.config/inkscape/extensions/textext/default_packages.tex"
     ns0:scale="3.0"
     ns0:alignment="middle center"
     ns0:stroke-to-path="0"
     ns0:inkscapeversion="1.4"
     ns0:jacobian_sqrt="1.05833"
     id="g7">
    <defs
       id="id-1bbe0560-ee35-4ffd-8dd8-a781ab11411f" />
    <g
       id="id-6de30250-2548-4baa-aa34-d6d9dc656eda"
       transform="translate(-149.711,-125.672)">
      <path
         style="fill:none;stroke:#000000;stroke-width:1.99255;stroke-linecap:butt;stroke-linejoin:miter;stroke-miterlimit:10;stroke-opacity:1"
         d="M 0.0019375,4.0625e-4 H 1.416 c 1.0625,0 1.597656,2.83593775 2.660156,2.83593775 0.769532,0 1.429688,-1.386719 2.125,-2.83593775 0.691407,-1.45312525 1.355469,-2.83593725 2.125,-2.83593725 0.769532,0 1.433594,1.382812 2.125,2.83593725 0.695313,1.44921875 1.359375,2.83593775 2.128907,2.83593775 0.769531,0 1.433593,-1.386719 2.125,-2.83593775 0.691406,-1.45312525 1.355468,-2.83593725 2.125,-2.83593725 0.769531,0 1.433593,1.382812 2.125,2.83593725 0.695312,1.44921875 1.359375,2.83593775 2.128906,2.83593775 0.769531,0 1.433594,-1.386719 2.125,-2.83593775 0.691406,-1.45312525 1.355469,-2.83593725 2.125,-2.83593725 0.769531,0 1.433594,1.382812 2.125,2.83593725 0.695312,1.44921875 1.359375,2.83593775 2.128906,2.83593775 0.769531,0 1.433594,-1.386719 2.125,-2.83593775 0.691406,-1.45312525 1.355469,-2.83593725 2.125,-2.83593725 0.769531,0 1.433594,1.382812 2.125,2.83593725 0.695313,1.44921875 1.359375,2.83593775 2.128906,2.83593775 0.769532,0 1.433594,-1.386719 2.125,-2.83593775 0.691407,-1.45312525 1.355469,-2.83593725 2.125,-2.83593725 0.769532,0 1.433594,1.382812 2.128907,2.83593725 0.691406,1.44921875 1.355468,2.83593775 2.125,2.83593775 0.769531,0 1.433593,-1.386719 2.125,-2.83593775 0.691406,-1.45312525 1.355468,-2.83593725 2.125,-2.83593725 0.769531,0 1.433593,1.382812 2.128906,2.83593725 0.691406,1.44921875 1.355469,2.83593775 2.125,2.83593775 0.769531,0 1.433594,-1.386719 2.125,-2.83593775 0.691406,-1.45312525 1.355469,-2.83593725 2.125,-2.83593725 0.769531,0 1.433594,1.382812 2.128906,2.83593725 0.691406,1.44921875 1.355469,2.83593775 2.125,2.83593775 0.769531,0 1.433594,-1.386719 2.125,-2.83593775 0.691406,-1.45312525 1.355469,-2.83593725 2.125,-2.83593725 0.769531,0 1.433594,1.382812 2.128906,2.83593725 0.691407,1.44921875 1.355469,2.83593775 2.125,2.83593775 0.769532,0 1.433594,-1.386719 2.125,-2.83593775 0.695313,-1.45312525 1.355469,-2.83593725 2.125,-2.83593725 1.066407,0 1.597657,2.83593725 2.660157,2.83593725 H 85.041"
         transform="matrix(1,0,0,-1,149.709,130.934)"
         id="id-e3e1faa2-2bea-49c5-9731-32b5da336720" />
      <path
         style="fill:#000000;fill-opacity:1;fill-rule:nonzero;stroke:none;stroke-width:0"
         d="m 237.91797,130.93359 -10.51953,-5.26171 3.94531,5.26171 -3.94531,5.26172"
         id="id-0bd51d0a-ce59-4f3d-a3d7-ef6edee25a30" />
    </g>
  </g>
</svg>
